<svg xmlns="http://www.w3.org/2000/svg" viewBox="0 0 79.62 75.72"><defs><style>.cls-1{fill:#8ea2ad;}</style></defs><title>icon-manage-booking</title><g id="Layer_2" data-name="Layer 2"><g id="Layer_1-2" data-name="Layer 1"><path class="cls-1" d="M73,0H6.62A6.63,6.63,0,0,0,0,6.62V54.78A6.63,6.63,0,0,0,6.62,61.4h22.5a5.67,5.67,0,0,1-2.32,4.43l-2.33,1.64a2.09,2.09,0,0,0-.35.3,4,4,0,0,0,.73,7.95H54.78a4,4,0,0,0,.73-8,1.9,1.9,0,0,0-.33-.27l-2.34-1.65a5.65,5.65,0,0,1-2.33-4.42H73a6.63,6.63,0,0,0,6.62-6.62V6.62A6.63,6.63,0,0,0,73,0ZM53.94,70.59a1.1,1.1,0,0,1,0,2.2H25.54a1.1,1.1,0,0,1,0-2.2ZM30.85,67.68a10.07,10.07,0,0,0,2.39-6.28H46.37a10.06,10.06,0,0,0,2.4,6.28Zm44.63-12.9A2.49,2.49,0,0,1,73,57.26H6.62a2.49,2.49,0,0,1-2.49-2.49V49.69H75.48Zm0-9.23H4.13V6.62A2.49,2.49,0,0,1,6.62,4.14H73a2.49,2.49,0,0,1,2.49,2.49Z"/><path class="cls-1" d="M14.58,20V10.3c0-.18-.36-.32-.79-.32s-.79.14-.79.32V20c0,.17.35.32.79.32S14.58,20.13,14.58,20Z"/><path class="cls-1" d="M15.11,20.27H12.46a3,3,0,0,0-3,3v6a3.05,3.05,0,0,0,3,3H13v9.65c0,.17.35.32.79.32s.79-.14.79-.32V32.41h.53a3.05,3.05,0,0,0,3-3v-6A3,3,0,0,0,15.11,20.27Zm1.46,9.09a1.46,1.46,0,0,1-1.46,1.46H12.46A1.46,1.46,0,0,1,11,29.36v-6a1.46,1.46,0,0,1,1.46-1.46h2.65a1.46,1.46,0,0,1,1.46,1.46Z"/><path class="cls-1" d="M24.32,28.88V41.95c0,.24.36.43.79.43s.8-.19.8-.43V28.88c0-.24-.36-.43-.8-.43S24.32,28.65,24.32,28.88Z"/><path class="cls-1" d="M26.44,16.32h-.53V10.22c0-.13-.36-.24-.8-.24s-.79.11-.79.24v6.09h-.53a3.05,3.05,0,0,0-3,3v6a3.05,3.05,0,0,0,3,3h2.65a3.05,3.05,0,0,0,3-3v-6A3.05,3.05,0,0,0,26.44,16.32Zm1.46,9.09a1.46,1.46,0,0,1-1.46,1.46H23.79a1.46,1.46,0,0,1-1.46-1.46v-6a1.46,1.46,0,0,1,1.46-1.46h2.65a1.46,1.46,0,0,1,1.46,1.46Z"/><path class="cls-1" d="M37.36,23.47V10.41c0-.24-.36-.43-.79-.43s-.79.19-.79.43V23.47c0,.24.36.43.79.43S37.36,23.71,37.36,23.47Z"/><path class="cls-1" d="M37.89,23.9H35.24a3,3,0,0,0-3,3v6a3.05,3.05,0,0,0,3,3h.53v6.09c0,.13.36.24.79.24s.79-.11.79-.24V36h.53a3.05,3.05,0,0,0,3-3v-6A3,3,0,0,0,37.89,23.9ZM39.35,33a1.46,1.46,0,0,1-1.46,1.46H35.24A1.46,1.46,0,0,1,33.79,33v-6a1.46,1.46,0,0,1,1.46-1.46h2.65a1.46,1.46,0,0,1,1.46,1.46Z"/><rect class="cls-1" x="49.5" y="32.08" width="12.26" height="3.96"/><rect class="cls-1" x="49.5" y="24.36" width="16.86" height="3.96"/><rect class="cls-1" x="49.5" y="15.93" width="22.22" height="3.95"/></g></g></svg>