<?xml version="1.0" encoding="utf-8"?>
<!-- Generator: Adobe Illustrator 19.2.0, SVG Export Plug-In . SVG Version: 6.00 Build 0)  -->
<svg version="1.1" id="Layer_1" xmlns="http://www.w3.org/2000/svg" xmlns:xlink="http://www.w3.org/1999/xlink" x="0px" y="0px"
	 viewBox="0 0 60 60" style="enable-background:new 0 0 60 60;" xml:space="preserve">
<style type="text/css">
	.st0{fill:#FFFFFF;}
</style>
<path class="st0" d="M45.3,54.9c-3.1,0-5.6-2.5-5.6-5.6c0-0.7,0.1-1.4,0.4-2.1c0.1-0.2,0-0.3-0.1-0.5c-0.1-0.1-0.3-0.2-0.4-0.2H29
	c-0.2,0-0.3,0.1-0.4,0.2c-0.1,0.1-0.1,0.3-0.1,0.5c0.3,0.7,0.4,1.4,0.4,2.1c0,3.1-2.5,5.6-5.6,5.6c-3.1,0-5.6-2.5-5.6-5.6
	c0-0.8,0.2-1.5,0.5-2.3c0.1-0.1,0.1-0.3,0-0.4c-0.1-0.1-0.2-0.2-0.3-0.3c-2.5-0.6-4.3-2.9-4.3-5.5V11c0-0.2-0.1-0.4-0.3-0.5L6.9,7.8
	C6.6,7.7,6.3,7.4,6.1,7.1C6,6.7,6,6.3,6.1,6c0.2-0.5,0.8-0.9,1.3-0.9c0.2,0,0.4,0,0.5,0.1l7.7,3.2c0,0,0.1,0.1,0.1,0.1
	c0,0,0,0,0.1,0.1c0,0,0.1,0,0.1,0.1c0,0,0.1,0.1,0.1,0.1c0,0,0.1,0.1,0.1,0.1l0.1,0.2l0,0.1c0,0,0.1,0.1,0.1,0.2c0,0,0,0,0-0.1
	c0,0,0,0.1,0,0.1c0,0,0,0.1,0.1,0.1c0,0,0-0.1,0-0.1c0,0.1,0,0.1,0,0.1c0,0,0,0.1,0,0.1c0,0,0,22.6,0,22.6c0,1.6,1.3,2.8,2.8,2.8
	h27.4c1.6,0,2.8-1.3,2.8-2.8V20.7c0-0.8,0.6-1.4,1.4-1.4c0.8,0,1.4,0.6,1.4,1.4v11.5c0,3.1-2.5,5.7-5.7,5.7H19.2
	c-0.7,0-1.5-0.1-2.1-0.4c-0.1,0-0.1,0-0.2,0c-0.1,0-0.2,0-0.3,0.1c-0.1,0.1-0.2,0.3-0.2,0.4v2.9c0,1.6,1.3,2.8,2.8,2.8h26.1
	c3.1,0,5.6,2.5,5.6,5.6C50.9,52.4,48.4,54.9,45.3,54.9z M45.3,46.5c-1.5,0-2.8,1.2-2.8,2.8c0,1.5,1.2,2.8,2.8,2.8
	c1.5,0,2.8-1.2,2.8-2.8C48.1,47.7,46.8,46.5,45.3,46.5z M23.3,46.5c-1.5,0-2.8,1.2-2.8,2.8c0,1.5,1.2,2.8,2.8,2.8
	c1.5,0,2.8-1.2,2.8-2.8C26.1,47.7,24.8,46.5,23.3,46.5z"/>
</svg>
