<?xml version="1.0" encoding="utf-8"?>
<!-- Generator: Adobe Illustrator 16.0.0, SVG Export Plug-In . SVG Version: 6.00 Build 0)  -->
<!DOCTYPE svg PUBLIC "-//W3C//DTD SVG 1.1//EN" "http://www.w3.org/Graphics/SVG/1.1/DTD/svg11.dtd">
<svg version="1.1" id="Layer_1" xmlns="http://www.w3.org/2000/svg" xmlns:xlink="http://www.w3.org/1999/xlink" x="0px" y="0px"
	 width="91.475px" height="43.477px" viewBox="0 0 91.475 43.477" enable-background="new 0 0 91.475 43.477" xml:space="preserve">
<g>
	<g id="XMLID_49_">
		<g id="XMLID_54_">
			<path id="XMLID_60_" fill="#D0624B" d="M2.367,15.496c-0.578-0.208-1.063-0.485-1.41-0.832c-0.346-0.347-0.6-0.764-0.763-1.225
				c-0.161-0.463-0.23-0.948-0.23-1.48v-8.9c0-0.161,0.045-0.3,0.162-0.393C0.24,2.573,0.358,2.504,0.542,2.504h7.097
				c0.301,0,0.532,0.023,0.671,0.047c0.161,0.046,0.277,0.093,0.347,0.185c0.068,0.092,0.115,0.208,0.115,0.369
				c0.023,0.163,0.023,0.347,0.023,0.602v0.115c0,0.231,0,0.439-0.023,0.602c0,0.162-0.047,0.301-0.115,0.394
				C8.587,4.908,8.471,5.001,8.31,5.048C8.147,5.094,7.917,5.116,7.639,5.116H2.784v2.566h3.93c0.301,0,0.532,0.023,0.693,0.069
				C7.57,7.799,7.686,7.867,7.754,7.96c0.07,0.093,0.116,0.231,0.139,0.393c0.024,0.163,0.024,0.347,0.024,0.602v0.162
				c0,0.23,0,0.416-0.024,0.577c-0.022,0.162-0.046,0.278-0.139,0.37c-0.068,0.093-0.185,0.162-0.347,0.208
				c-0.161,0.047-0.393,0.069-0.693,0.069h-3.93v1.688c0,0.254,0.046,0.439,0.161,0.601c0.116,0.139,0.277,0.254,0.463,0.347
				c0.185,0.092,0.416,0.139,0.693,0.185c0.255,0.024,0.555,0.047,0.855,0.047h2.682c0.301,0,0.532,0.022,0.671,0.068
				c0.161,0.047,0.277,0.116,0.347,0.209c0.068,0.093,0.115,0.208,0.115,0.369c0.023,0.162,0.023,0.348,0.023,0.578v0.116
				c0,0.231,0,0.438-0.023,0.601c0,0.162-0.047,0.301-0.115,0.393c-0.069,0.093-0.186,0.186-0.347,0.231
				c-0.163,0.046-0.393,0.07-0.671,0.07H4.518C3.662,15.797,2.946,15.704,2.367,15.496z"/>
			<path id="XMLID_59_" fill="#D0624B" d="M17.464,15.936c-0.231-0.023-0.439-0.069-0.624-0.116
				c-0.186-0.046-0.347-0.115-0.509-0.161c-0.74-0.347-1.317-0.901-1.711-1.642c-0.393-0.763-0.602-1.641-0.602-2.682
				c0-0.555,0.07-1.086,0.231-1.595c0.163-0.51,0.37-0.971,0.648-1.364c0.276-0.416,0.624-0.763,1.017-1.04
				c0.393-0.301,0.832-0.51,1.317-0.625c0.417-0.114,0.878-0.161,1.363-0.161c0.324,0,0.603,0,0.787,0.022
				c0.186,0.024,0.415,0.047,0.646,0.116c0.093-0.069,0.208-0.116,0.324-0.116c0.115-0.022,0.278-0.022,0.485-0.022h0.231
				c0.301,0,0.555,0,0.717,0c0.185,0,0.323,0.047,0.416,0.115c0.092,0.07,0.162,0.186,0.185,0.324
				c0.023,0.161,0.046,0.37,0.046,0.67v6.312h0.371c0.161,0,0.3,0.046,0.393,0.161c0.093,0.116,0.161,0.231,0.161,0.394v0.717
				c0,0.139-0.022,0.231-0.068,0.3c-0.047,0.07-0.163,0.139-0.324,0.209h0.023c-0.046,0.022-0.116,0.022-0.209,0.068
				c-0.115,0.024-0.231,0.047-0.393,0.07c-0.161,0.022-0.324,0.046-0.531,0.046c-0.186,0.023-0.394,0.023-0.601,0
				c-0.485-0.046-0.855-0.185-1.11-0.462c-0.208,0.092-0.348,0.161-0.462,0.185c-0.485,0.208-1.063,0.301-1.712,0.301
				c-0.091,0-0.184,0-0.254,0C17.603,15.936,17.533,15.936,17.464,15.936L17.464,15.936z M17.904,13.601
				c0.115,0.023,0.3,0.023,0.531,0c0.231-0.022,0.509-0.093,0.832-0.186c0.162-0.068,0.277-0.092,0.348-0.139
				c0.069-0.022,0.115-0.046,0.184-0.068V8.931c-0.161-0.022-0.346-0.046-0.577-0.069c-0.208-0.023-0.439-0.023-0.671-0.023
				c-0.393,0-0.716,0.093-0.947,0.255s-0.438,0.394-0.578,0.647c-0.139,0.277-0.231,0.578-0.277,0.924
				c-0.046,0.347-0.068,0.694-0.022,1.041c0,0.231,0.022,0.439,0.068,0.646c0.023,0.209,0.093,0.417,0.186,0.578
				c0.093,0.163,0.208,0.324,0.347,0.439C17.464,13.486,17.65,13.578,17.904,13.601z"/>
			<path id="XMLID_58_" fill="#D0624B" d="M24.538,15.751c-0.162-0.047-0.277-0.139-0.347-0.255
				c-0.069-0.115-0.116-0.254-0.116-0.416s-0.022-0.37-0.022-0.602v-0.093c0-0.207,0-0.346,0.022-0.415
				c0.023-0.07,0.07-0.162,0.186-0.277l3.953-4.717H25.37c-0.277,0-0.509,0-0.671-0.022c-0.161-0.023-0.277-0.069-0.347-0.139
				c-0.069-0.07-0.114-0.186-0.114-0.347c0-0.162-0.024-0.37-0.024-0.67V7.614c0-0.254,0-0.463,0.024-0.602
				c0-0.139,0.045-0.254,0.114-0.323s0.186-0.116,0.347-0.116C24.862,6.55,25.07,6.55,25.37,6.55h5.363
				c0.277,0,0.509,0.047,0.647,0.115c0.139,0.07,0.254,0.161,0.324,0.301c0.068,0.116,0.115,0.277,0.115,0.462
				c0,0.186,0.022,0.371,0.022,0.578v0.115c0,0.139,0,0.231-0.022,0.324c-0.024,0.093-0.069,0.208-0.162,0.37l-3.884,4.624h2.936
				c0.301,0,0.509,0,0.671,0.022c0.161,0.023,0.277,0.069,0.347,0.139c0.068,0.07,0.115,0.208,0.115,0.37c0,0.161,0,0.415,0,0.717
				c0,0.276,0,0.508-0.022,0.671c-0.024,0.161-0.047,0.276-0.115,0.346c-0.07,0.069-0.186,0.115-0.348,0.14
				c-0.161,0.022-0.369,0.022-0.647,0.022h-5.525C24.907,15.82,24.699,15.797,24.538,15.751z"/>
			<path id="XMLID_57_" fill="#D0624B" d="M35.912,15.936c-0.231-0.023-0.439-0.069-0.624-0.116
				c-0.186-0.046-0.347-0.115-0.51-0.161c-0.739-0.347-1.317-0.901-1.71-1.642c-0.393-0.763-0.602-1.641-0.602-2.682
				c0-0.555,0.07-1.086,0.231-1.595c0.162-0.51,0.37-0.971,0.648-1.364c0.276-0.416,0.624-0.763,1.017-1.04
				c0.393-0.301,0.832-0.51,1.317-0.625c0.416-0.114,0.878-0.161,1.363-0.161c0.324,0,0.602,0,0.787,0.022
				c0.185,0.024,0.415,0.047,0.646,0.116c0.093-0.069,0.209-0.116,0.324-0.116c0.115-0.022,0.277-0.022,0.485-0.022h0.231
				c0.3,0,0.554,0,0.717,0c0.185,0,0.3,0.047,0.415,0.115c0.093,0.07,0.163,0.186,0.186,0.324c0.023,0.161,0.046,0.37,0.046,0.67
				v6.312h0.37c0.162,0,0.301,0.046,0.394,0.161c0.092,0.116,0.139,0.231,0.139,0.394v0.717c0,0.139-0.023,0.231-0.07,0.3
				c-0.046,0.07-0.161,0.139-0.322,0.209h0.022c-0.047,0.022-0.115,0.022-0.208,0.068c-0.116,0.024-0.231,0.047-0.393,0.07
				c-0.163,0.022-0.324,0.046-0.532,0.046c-0.185,0.023-0.394,0.023-0.602,0c-0.485-0.046-0.855-0.185-1.109-0.462
				c-0.208,0.092-0.347,0.161-0.462,0.185c-0.486,0.208-1.064,0.301-1.711,0.301c-0.093,0-0.186,0-0.254,0
				C36.051,15.936,35.981,15.936,35.912,15.936L35.912,15.936z M36.351,13.601c0.115,0.023,0.301,0.023,0.532,0
				c0.231-0.022,0.509-0.093,0.832-0.186c0.162-0.068,0.277-0.092,0.348-0.139c0.068-0.022,0.115-0.046,0.184-0.068V8.931
				c-0.161-0.022-0.347-0.046-0.578-0.069c-0.207-0.023-0.438-0.023-0.67-0.023c-0.393,0-0.716,0.093-0.947,0.255
				s-0.439,0.394-0.578,0.647c-0.139,0.277-0.231,0.578-0.277,0.924c-0.047,0.347-0.069,0.694-0.047,1.041
				c0.024,0.231,0.024,0.439,0.07,0.646c0.022,0.209,0.092,0.417,0.185,0.578c0.092,0.163,0.208,0.324,0.348,0.439
				C35.912,13.486,36.097,13.578,36.351,13.601z"/>
			<path id="XMLID_56_" fill="#D0624B" d="M43.311,15.774c-0.14-0.022-0.231-0.069-0.302-0.161
				c-0.069-0.093-0.115-0.208-0.139-0.347c-0.022-0.139-0.047-0.348-0.047-0.578V3.036c0-0.277,0.024-0.485,0.047-0.624
				c0.023-0.14,0.093-0.254,0.185-0.324c0.093-0.069,0.231-0.115,0.394-0.115c0.162-0.023,0.394-0.023,0.67-0.023h0.186
				c0.254,0,0.463,0,0.624,0.023c0.161,0.022,0.277,0.046,0.347,0.115c0.093,0.07,0.139,0.185,0.139,0.324
				c0.023,0.139,0.023,0.347,0.023,0.624l0.022,3.606c0.07-0.023,0.116-0.046,0.163-0.046c0.045,0,0.091,0,0.161-0.024
				c0.161-0.046,0.37-0.068,0.625-0.092c0.254-0.023,0.554-0.047,0.878-0.047c1.295-0.022,2.243,0.186,2.82,0.624
				c0.578,0.439,0.879,1.156,0.879,2.15v4.692h0.393c0.161,0,0.277,0.047,0.393,0.163c0.116,0.115,0.163,0.231,0.163,0.393v0.717
				c0,0.093-0.024,0.186-0.093,0.301c-0.07,0.092-0.163,0.185-0.302,0.23h0.024c-0.07,0.023-0.255,0.069-0.578,0.162
				c-0.324,0.069-0.717,0.093-1.18,0.046c-0.347-0.046-0.601-0.115-0.786-0.254c-0.185-0.139-0.323-0.3-0.416-0.463
				c-0.092-0.161-0.138-0.322-0.161-0.485c-0.023-0.161-0.047-0.277-0.047-0.347v-4.67c-0.022-0.3-0.115-0.509-0.277-0.624
				s-0.393-0.185-0.739-0.208c-0.324-0.023-0.647-0.023-0.971,0.023c-0.324,0.046-0.625,0.069-0.925,0.116v5.687
				c0,0.439-0.07,0.739-0.186,0.9c-0.116,0.14-0.393,0.231-0.81,0.231h-0.624C43.611,15.797,43.448,15.797,43.311,15.774z"/>
		</g>
		<g id="XMLID_50_">
			<path id="XMLID_53_" fill="#D0624B" d="M10.412,5.093c0.093,0.07,0.231,0.116,0.417,0.116c0.185,0,0.438,0,0.739,0
				c0.277,0,0.486,0,0.67-0.023c0.163,0,0.302-0.047,0.395-0.138c0.091-0.07,0.161-0.186,0.184-0.348
				c0.024-0.162,0.047-0.369,0.047-0.671V3.753c0-0.302-0.022-0.532-0.047-0.671c-0.022-0.162-0.093-0.277-0.184-0.347
				c-0.093-0.069-0.231-0.116-0.417-0.116c-0.185,0-0.438-0.022-0.763-0.022c-0.277,0-0.485,0-0.646,0.022
				c-0.163,0.024-0.302,0.047-0.371,0.14c-0.092,0.068-0.139,0.185-0.161,0.346c-0.023,0.163-0.046,0.371-0.046,0.671v0.277
				c0,0.301,0,0.532,0.022,0.693C10.275,4.908,10.322,5.024,10.412,5.093z"/>
			<path id="XMLID_52_" fill="#D0624B" d="M12.864,7.614L12.864,7.614c0-0.209-0.022-0.393-0.022-0.509
				c-0.024-0.139-0.07-0.254-0.14-0.323c-0.092-0.07-0.207-0.116-0.347-0.116c-0.162-0.022-0.346-0.022-0.602-0.022h-0.185
				c-0.276,0-0.485,0-0.646,0.022c-0.162,0.023-0.301,0.046-0.394,0.116c-0.093,0.069-0.161,0.185-0.185,0.323
				c-0.022,0.139-0.047,0.347-0.047,0.624v1.434l0,0v8.16c-0.022,0.301-0.115,0.556-0.277,0.717
				c-0.161,0.162-0.369,0.277-0.601,0.301c-0.277,0.046-0.509,0.069-0.671,0.069c-0.161,0.022-0.277,0.046-0.346,0.115
				c-0.07,0.07-0.116,0.162-0.116,0.277c-0.023,0.116-0.023,0.301-0.023,0.532v0.185c0,0.254,0,0.439,0.023,0.578
				s0.046,0.254,0.116,0.347c0.068,0.093,0.185,0.139,0.346,0.162c0.162,0.022,0.371,0.047,0.671,0.047
				c0.254,0,0.601-0.07,1.063-0.186c0.439-0.116,0.878-0.347,1.295-0.717c0.393-0.347,0.692-0.74,0.878-1.18
				c0.186-0.438,0.254-0.947,0.254-1.524L12.864,7.614z"/>
		</g>
	</g>
	<g id="XMLID_35_">
		<path id="XMLID_47_" fill="#349797" d="M54.66,13.601c0.024-0.161,0.093-0.301,0.185-0.37c0.093-0.069,0.232-0.115,0.418-0.138
			c0.186,0,0.415-0.024,0.738-0.024c0.348,0,0.625,0,0.833,0s0.348,0.047,0.463,0.14c0.093,0.068,0.16,0.207,0.208,0.37
			c0.022,0.161,0.045,0.415,0.045,0.762v0.302c0,0.322-0.022,0.577-0.045,0.739c-0.023,0.161-0.093,0.3-0.186,0.37
			c-0.093,0.068-0.23,0.115-0.415,0.139c-0.186,0.022-0.44,0.022-0.741,0.022c-0.348,0-0.625,0-0.833,0
			c-0.207,0-0.345-0.046-0.46-0.139c-0.093-0.069-0.163-0.208-0.186-0.369c-0.024-0.162-0.024-0.417-0.024-0.763V14.34
			C54.615,14.017,54.615,13.785,54.66,13.601z"/>
		<path id="XMLID_45_" fill="#349797" d="M63.607,13.647c0.278-0.022,0.511-0.046,0.671-0.093c0.162-0.046,0.348-0.068,0.508-0.114
			l0.163-0.024c0.207-0.068,0.415-0.092,0.625-0.092c0.253,0,0.438,0.092,0.553,0.277c0.118,0.185,0.232,0.463,0.37,0.832
			c0.115,0.277,0.163,0.509,0.163,0.694c0,0.185-0.093,0.347-0.301,0.415c-0.207,0.07-0.508,0.186-0.925,0.277l-0.485,0.093
			c-0.531,0.116-1.156,0.161-1.85,0.161c-0.716,0-1.341-0.114-1.871-0.346c-0.232-0.115-0.463-0.254-0.671-0.416
			c-0.21-0.162-0.418-0.348-0.578-0.555c-0.325-0.394-0.577-0.879-0.763-1.434s-0.255-1.156-0.232-1.85
			c0.022-1.017,0.232-1.896,0.647-2.636c0.416-0.739,0.994-1.295,1.712-1.664c0.53-0.255,1.248-0.393,2.104-0.37
			c0.416,0,0.809,0.047,1.156,0.093c0.346,0.046,0.716,0.139,1.063,0.231c0.322,0.093,0.578,0.186,0.716,0.276
			c0.138,0.07,0.229,0.209,0.229,0.395c0,0.092-0.022,0.207-0.067,0.322c-0.048,0.116-0.093,0.255-0.14,0.417
			c-0.138,0.323-0.278,0.578-0.37,0.717c-0.093,0.139-0.253,0.231-0.485,0.231c-0.161,0-0.416-0.047-0.716-0.14
			c-0.23-0.069-0.463-0.116-0.693-0.162c-0.232-0.046-0.463-0.068-0.693-0.068c-0.463,0-0.811,0.046-0.995,0.114
			c-0.186,0.093-0.323,0.256-0.438,0.44c-0.117,0.185-0.207,0.416-0.277,0.693c-0.093,0.324-0.115,0.81-0.093,1.434
			c0.022,0.578,0.138,1.039,0.346,1.41c0.093,0.115,0.277,0.231,0.532,0.277C62.868,13.671,63.214,13.671,63.607,13.647z"/>
		<path id="XMLID_44_" fill="#349797" d="M71.213,16.051c-0.323-0.022-0.671-0.068-0.971-0.161
			c-0.323-0.093-0.601-0.186-0.833-0.302c-0.646-0.3-1.179-0.785-1.549-1.456c-0.368-0.67-0.554-1.479-0.554-2.404
			c0-0.068,0-0.161,0-0.277c0-0.092,0-0.185,0.023-0.276v0.022c0.045-0.647,0.162-1.271,0.37-1.826
			c0.207-0.555,0.485-1.04,0.878-1.433c0.393-0.395,0.878-0.694,1.434-0.902c0.578-0.207,1.248-0.277,2.034-0.231
			c0.693,0.047,1.318,0.208,1.804,0.485c0.508,0.278,0.923,0.624,1.248,1.087c0.323,0.462,0.554,0.971,0.716,1.571
			c0.138,0.602,0.208,1.249,0.186,1.943c-0.048,1.271-0.416,2.288-1.134,3.028c-0.716,0.739-1.756,1.109-3.145,1.109
			c-0.091,0-0.183,0-0.253,0C71.353,16.051,71.282,16.051,71.213,16.051z M71.654,13.717c0.577,0,1.04-0.186,1.341-0.533
			c0.3-0.347,0.46-0.854,0.485-1.479c0.022-0.67-0.093-1.226-0.37-1.688c-0.278-0.463-0.718-0.717-1.318-0.763
			c-0.323-0.024-0.623,0.022-0.856,0.115c-0.229,0.092-0.438,0.231-0.623,0.438c-0.162,0.186-0.3,0.417-0.393,0.694
			c-0.093,0.254-0.14,0.555-0.162,0.878v-0.022v0.254c0,0.439,0.069,0.81,0.229,1.133c0.163,0.323,0.371,0.555,0.648,0.717
			c0.093,0.046,0.208,0.116,0.348,0.139c0.115,0.046,0.277,0.07,0.438,0.093L71.654,13.717L71.654,13.717z"/>
		<path id="XMLID_42_" fill="#349797" d="M85.154,14.849c0,0.439-0.07,0.739-0.185,0.879c-0.115,0.139-0.394,0.208-0.809,0.208
			h-0.603c-0.208,0-0.394,0-0.509-0.023c-0.114-0.022-0.229-0.068-0.3-0.161c-0.07-0.07-0.115-0.186-0.138-0.347
			c-0.024-0.139-0.024-0.324-0.024-0.556l0.024-4.877c-0.024-0.301-0.117-0.51-0.277-0.625c-0.163-0.116-0.394-0.185-0.741-0.208
			c-0.3-0.022-0.601-0.022-0.878,0.023c-0.277,0.022-0.578,0.068-0.855,0.115v5.549c0,0.439-0.07,0.739-0.186,0.878
			c-0.115,0.14-0.393,0.208-0.785,0.208h-0.625c-0.208,0-0.368,0-0.509-0.022c-0.138-0.023-0.229-0.07-0.3-0.162
			c-0.07-0.069-0.115-0.186-0.138-0.347c-0.025-0.139-0.025-0.324-0.025-0.555l0.025-5.688h-0.37c-0.163,0-0.301-0.046-0.394-0.162
			c-0.092-0.115-0.162-0.231-0.162-0.393V7.845c0-0.093,0.022-0.186,0.045-0.255c0.025-0.069,0.07-0.115,0.117-0.139
			c0.138-0.115,0.301-0.23,0.486-0.323c0.16-0.093,0.345-0.162,0.577-0.231c0.208-0.07,0.485-0.093,0.786-0.093
			c0.438,0,0.785,0.115,1.063,0.37c0.092-0.046,0.207-0.092,0.345-0.139c0.141-0.046,0.256-0.093,0.371-0.093
			c0.162-0.023,0.37-0.069,0.603-0.092c0.23-0.022,0.485-0.022,0.785-0.022c0.531,0,0.993,0.022,1.434,0.138
			c0.416,0.092,0.786,0.23,1.086,0.416c0.255-0.208,0.556-0.347,0.924-0.416c0.162-0.023,0.395-0.047,0.718-0.069
			c0.3-0.023,0.693-0.046,1.133-0.046c1.271,0,2.194,0.185,2.772,0.624c0.556,0.416,0.855,1.109,0.855,2.104v4.554h0.371
			c0.162,0,0.3,0.047,0.393,0.163c0.093,0.091,0.14,0.23,0.14,0.369v0.717c0,0.161-0.024,0.277-0.093,0.347
			c-0.069,0.069-0.14,0.116-0.207,0.139l-0.093,0.023h0.022c-0.07,0.022-0.255,0.069-0.578,0.139
			c-0.322,0.069-0.692,0.092-1.155,0.047c-0.323-0.024-0.601-0.116-0.786-0.256c-0.185-0.139-0.325-0.277-0.418-0.438
			c-0.092-0.162-0.138-0.324-0.16-0.485c-0.024-0.139-0.047-0.254-0.047-0.324v-4.554c-0.046-0.485-0.37-0.763-0.993-0.787
			c-0.23,0-0.509,0-0.834,0.024c-0.322,0.022-0.623,0.046-0.923,0.092c0,0.023,0,0.069,0,0.115c0,0.047,0,0.093,0,0.14
			L85.154,14.849L85.154,14.849z"/>
	</g>
	<g id="XMLID_3_">
		<g id="XMLID_23_">
			<g id="XMLID_24_">
				<g id="XMLID_25_">
					<path id="XMLID_34_" fill="#D0624B" d="M44.628,27.079c-1.503,0-2.775,0.485-3.814,1.548c-1.063,1.041-1.572,2.265-1.572,3.746
						c0,1.016,0.254,1.919,0.785,2.774c0.07,0.138,0.231,0.208,0.394,0.208h8.415c0.162,0,0.277-0.07,0.393-0.208
						c0.531-0.833,0.787-1.759,0.787-2.774c0-1.481-0.532-2.705-1.572-3.746C47.357,27.587,46.084,27.079,44.628,27.079z
						 M44.628,29.854c1.71,0,2.565,0.831,2.565,2.564v0.232h-5.132v-0.232C42.038,30.661,42.87,29.854,44.628,29.854z"/>
					<path id="XMLID_33_" fill="#D0624B" d="M81.293,27.079c-1.688,0-3.053,0.601-4.139,1.826c-0.069,0.067-0.14,0.208-0.114,0.322
						c0,0.138,0.045,0.23,0.16,0.323l1.411,1.181c0.185,0.16,0.462,0.138,0.623-0.024c0.555-0.601,1.226-0.879,2.081-0.879
						c1.896,0,2.845,0.903,2.845,2.822v0.022H60.324v-9.432c0-0.231-0.208-0.44-0.438-0.44h-1.852c-0.23,0-0.438,0.209-0.438,0.44
						v11.674c0,0.23,0.208,0.44,0.438,0.44h27.881c0.163,0,0.323-0.118,0.394-0.233c0.415-0.785,0.601-1.641,0.601-2.564
						c0-1.503-0.556-2.821-1.619-3.885C84.16,27.61,82.842,27.079,81.293,27.079z"/>
					<path id="XMLID_32_" fill="#D0624B" d="M88.829,35.356h1.849c0.255,0,0.44-0.21,0.44-0.44V23.218
						c0-0.231-0.208-0.439-0.44-0.439h-1.849c-0.23,0-0.438,0.208-0.438,0.439v11.697C88.391,35.146,88.599,35.356,88.829,35.356z"
						/>
					<path id="XMLID_31_" fill="#D0624B" d="M91.303,38.705h-1.896c0.208-0.993,1.757-0.993,1.827-0.993
						c0.138,0,0.23-0.115,0.23-0.208v-0.855c0-0.138-0.115-0.207-0.23-0.207c-3.053,0-3.283,2.196-3.283,2.867
						c0,0.207,0.023,0.393,0.07,0.553c0.022,0.07,0.115,0.14,0.208,0.14h3.052c0.138,0,0.23-0.115,0.23-0.207v-0.833
						C91.511,38.798,91.418,38.705,91.303,38.705z"/>
					<path id="XMLID_30_" fill="#D0624B" d="M52.326,25.321c0.115,0.069,0.231,0.117,0.439,0.14c0.185,0,0.438,0,0.785,0
						c0.278,0,0.531,0,0.693-0.022c0.186,0,0.323-0.048,0.416-0.14c0.093-0.093,0.162-0.208,0.185-0.371
						c0.025-0.16,0.048-0.393,0.048-0.692v-0.278c0-0.322-0.022-0.553-0.048-0.692c-0.022-0.162-0.115-0.277-0.185-0.37
						c-0.115-0.068-0.23-0.115-0.438-0.138c-0.185,0-0.463-0.023-0.81-0.023c-0.276,0-0.532,0-0.693,0.023
						c-0.185,0-0.324,0.045-0.393,0.138c-0.116,0.07-0.162,0.208-0.186,0.37s-0.046,0.393-0.046,0.692v0.278
						c0,0.325,0,0.578,0.022,0.74C52.141,25.113,52.21,25.252,52.326,25.321z"/>
					<path id="XMLID_29_" fill="#D0624B" d="M41.531,25.321c0.115,0.069,0.23,0.117,0.438,0.14c0.186,0,0.439,0,0.786,0
						c0.277,0,0.531,0,0.693-0.022c0.185,0,0.323-0.048,0.416-0.14c0.115-0.068,0.161-0.208,0.186-0.371
						c0.022-0.16,0.046-0.393,0.046-0.692v-0.278c0-0.322-0.023-0.553-0.046-0.692c-0.024-0.162-0.116-0.277-0.186-0.37
						c-0.115-0.068-0.231-0.115-0.439-0.138c-0.207,0-0.462-0.023-0.809-0.023c-0.278,0-0.532,0-0.693,0.023
						c-0.186,0-0.324,0.045-0.393,0.138c-0.116,0.07-0.163,0.208-0.186,0.37c-0.023,0.162-0.046,0.393-0.046,0.692v0.278
						c0,0.325,0,0.578,0.022,0.74C41.367,25.113,41.414,25.252,41.531,25.321z"/>
					<path id="XMLID_28_" fill="#D0624B" d="M45.645,25.321c0.115,0.069,0.231,0.117,0.439,0.14c0.185,0,0.439,0,0.785,0
						c0.278,0,0.532,0,0.694-0.022c0.186,0,0.324-0.048,0.416-0.14c0.116-0.068,0.162-0.208,0.185-0.371
						c0.023-0.16,0.047-0.393,0.047-0.692v-0.278c0-0.322-0.023-0.553-0.047-0.692c-0.022-0.162-0.115-0.277-0.185-0.37
						c-0.115-0.068-0.23-0.115-0.439-0.138c-0.208,0-0.462-0.023-0.809-0.023c-0.277,0-0.531,0-0.694,0.023
						c-0.185,0-0.324,0.045-0.393,0.138c-0.115,0.07-0.161,0.208-0.186,0.37c-0.022,0.162-0.046,0.393-0.046,0.692v0.278
						c0,0.325,0,0.578,0.023,0.74C45.484,25.113,45.53,25.252,45.645,25.321z"/>
					<path id="XMLID_27_" fill="#D0624B" d="M80.252,39.447c0.115,0.069,0.23,0.114,0.44,0.14c0.186,0,0.438,0,0.785,0
						c0.278,0,0.531,0,0.693-0.025c0.186,0,0.323-0.045,0.416-0.138c0.092-0.092,0.162-0.207,0.185-0.37
						c0.022-0.162,0.048-0.393,0.048-0.692v-0.278c0-0.322-0.025-0.555-0.048-0.692c-0.022-0.141-0.115-0.278-0.185-0.371
						c-0.115-0.069-0.23-0.115-0.438-0.14c-0.208,0-0.463-0.022-0.811-0.022c-0.277,0-0.53,0-0.693,0.022
						c-0.185,0-0.322,0.048-0.393,0.14c-0.115,0.07-0.162,0.208-0.185,0.371c-0.022,0.16-0.046,0.393-0.046,0.692v0.278
						c0,0.322,0,0.577,0.023,0.74C80.09,39.261,80.183,39.401,80.252,39.447z"/>
					<path id="XMLID_26_" fill="#D0624B" d="M54.893,27.957c0-0.208,0-0.393-0.022-0.533c-0.025-0.16-0.07-0.253-0.163-0.345
						c-0.069-0.07-0.207-0.141-0.37-0.141c-0.162,0-0.37-0.022-0.647-0.022h-0.185c-0.278,0-0.532,0-0.693,0.022
						c-0.186,0-0.324,0.048-0.417,0.141c-0.092,0.092-0.161,0.185-0.185,0.345c-0.022,0.163-0.046,0.37-0.046,0.648v1.479l0,0v8.509
						c-0.023,0.323-0.14,0.578-0.277,0.764c-0.162,0.185-0.394,0.277-0.647,0.322c-0.324,0.022-0.555,0.045-0.693,0.07
						c-0.162,0.022-0.277,0.045-0.37,0.138c-0.069,0.047-0.139,0.162-0.139,0.277c0,0.138-0.022,0.323-0.022,0.578v0.186
						c0,0.255,0,0.462,0.022,0.6c0.023,0.163,0.046,0.256,0.139,0.348c0.07,0.07,0.208,0.138,0.37,0.161
						c0.161,0.024,0.393,0.024,0.693,0.024c0.277,0,0.647-0.048,1.133-0.186c0.462-0.14,0.947-0.37,1.387-0.74
						c0.416-0.37,0.741-0.763,0.901-1.226c0.185-0.461,0.277-0.993,0.277-1.594L54.893,27.957L54.893,27.957z"/>
				</g>
			</g>
		</g>
		<g id="XMLID_4_">
			<g id="XMLID_5_">
				<g id="XMLID_18_">
					<g id="XMLID_19_">
						<path id="XMLID_21_" fill="#349797" d="M0.218,35.448c0-0.763,0.186-1.341,0.532-1.666c0.347-0.37,0.81-0.553,1.409-0.578
							c-0.022-0.067-0.022-0.185-0.046-0.345c-0.022-0.163-0.022-0.278-0.022-0.393v-0.834c0-0.577,0.068-1.063,0.254-1.479
							c0.186-0.417,0.417-0.788,0.739-1.063c0.324-0.277,0.671-0.485,1.134-0.647c0.461-0.163,0.901-0.208,1.434-0.208
							c0.531,0,1.017,0.068,1.432,0.208c0.439,0.138,0.81,0.346,1.134,0.623s0.555,0.625,0.693,1.063
							c0.162,0.417,0.255,0.903,0.255,1.48v0.948c0,0.601-0.07,1.086-0.255,1.502c-0.162,0.417-0.416,0.785-0.693,1.04
							c-0.324,0.256-0.671,0.463-1.134,0.601c-0.438,0.141-0.946,0.186-1.479,0.186c-0.463,0-0.901-0.045-1.364-0.138
							c-0.439-0.115-0.809-0.255-1.133-0.533c-0.231,0-0.393,0.022-0.463,0.115c-0.068,0.07-0.139,0.21-0.139,0.396v3.49
							c0,0.067-0.022,0.16-0.115,0.23c-0.046,0.047-0.139,0.069-0.231,0.069h-1.71c-0.069,0-0.162-0.022-0.209-0.069
							c-0.046-0.046-0.114-0.138-0.114-0.23v-3.793h0.092V35.448z M4.379,32.303c0,0.53,0.116,0.878,0.277,1.134
							c0.186,0.229,0.532,0.345,0.971,0.345c0.417,0,0.764-0.115,0.971-0.322c0.209-0.208,0.347-0.601,0.347-1.156v-0.578
							c0-0.555-0.115-0.948-0.322-1.179c-0.209-0.207-0.532-0.348-0.948-0.348c-0.417,0-0.764,0.115-0.971,0.348
							c-0.208,0.23-0.324,0.601-0.324,1.179V32.303L4.379,32.303z"/>
					</g>
				</g>
				<g id="XMLID_13_">
					<g id="XMLID_14_">
						<path id="XMLID_15_" fill="#349797" d="M11.222,37.597c0-0.185,0.07-0.255,0.255-0.255h1.433c0.393,0,0.74-0.022,1.018-0.045
							s0.531-0.115,0.693-0.186c0.162-0.069,0.324-0.208,0.394-0.37c0.068-0.162,0.139-0.37,0.161-0.601v-0.37h-0.832
							c-1.179,0-2.08-0.277-2.704-0.855c-0.648-0.578-0.972-1.434-0.972-2.52v-0.255c0-1.249,0.369-2.22,1.086-2.89
							c0.741-0.646,1.805-0.994,3.214-0.994c0.186,0,0.417,0,0.647,0.022c0.231,0.023,0.462,0.023,0.67,0.048
							c0.209,0.022,0.417,0.045,0.602,0.067c0.186,0.025,0.324,0.048,0.417,0.118c0.115,0.045,0.184,0.114,0.207,0.138
							c0.047,0.022,0.047,0.114,0.047,0.185v4.669h5.387v2.312h-5.387v0.463c-0.047,0.648-0.209,1.181-0.463,1.597
							c-0.231,0.415-0.555,0.74-0.902,0.971c-0.369,0.229-0.785,0.393-1.247,0.463c-0.463,0.067-0.972,0.138-1.457,0.138
							c-0.069,0-0.208,0-0.416,0c-0.185,0-0.393,0-0.602-0.023c-0.207,0-0.415-0.022-0.601-0.022c-0.185,0-0.323-0.024-0.393-0.047
							c-0.116-0.022-0.162-0.045-0.185-0.115c-0.024-0.048-0.047-0.115-0.047-0.186L11.222,37.597L11.222,37.597z M12.98,32.048
							c0,0.485,0.115,0.855,0.322,1.088c0.209,0.23,0.556,0.368,1.064,0.368h0.947v-3.19c-0.115,0-0.231-0.022-0.347-0.022
							c-0.139,0-0.231,0-0.347,0c-0.531,0-0.901,0.163-1.202,0.44c-0.277,0.277-0.416,0.671-0.416,1.179v0.138H12.98z"/>
					</g>
				</g>
				<g id="XMLID_10_">
					<g id="XMLID_11_">
						<path id="XMLID_12_" fill="#349797" d="M18.32,33.714c0-0.07,0.047-0.163,0.162-0.21c0.114-0.045,4.276-0.067,4.392-0.067
							h5.688c0.046,0,0.162,0,0.37,0c0.207,0,0.416,0,0.646,0c0.231,0,0.44,0,0.647,0c0.208,0,0.324,0,0.371,0
							c0-0.141,0.022-0.256,0.022-0.418c0-0.16,0-0.275,0-0.393c0-0.738-0.231-1.271-0.693-1.594
							c-0.463-0.325-1.18-0.463-2.081-0.463h-3.398c-0.254,0-0.393-0.07-0.393-0.256c0-0.022,0-0.045,0-0.138
							c0-0.047,0-0.14-0.023-0.185c0-0.07,0-0.138,0-0.186c0-0.045,0-0.115,0-0.115c0-0.255,0.023-0.485,0.069-0.74
							c0.047-0.23,0.115-0.463,0.208-0.693c0.069-0.229,0.186-0.463,0.324-0.74c0.139-0.253,0.254-0.53,0.415-0.809l1.156-2.104
							c0.046-0.07,0.116-0.163,0.185-0.208c0.07-0.047,0.163-0.069,0.254-0.069h1.78c0.07,0,0.14,0.022,0.163,0.047
							c0.022,0.022,0.046,0.067,0.046,0.138c0,0.048-0.023,0.115-0.046,0.163l-1.434,2.682c-0.047,0.067-0.069,0.16-0.161,0.253
							c-0.047,0.115-0.117,0.232-0.163,0.348s-0.115,0.208-0.139,0.322c-0.022,0.07-0.047,0.163-0.047,0.186
							c0.395-0.022,0.694-0.022,0.902-0.045c0.208-0.025,0.439-0.025,0.624-0.025c0.902,0,1.688,0.118,2.313,0.325
							c0.624,0.208,1.133,0.531,1.479,0.948c0.37,0.416,0.646,0.878,0.81,1.479c0.161,0.578,0.229,1.249,0.229,1.989v0.438
							c0,0.114,0,0.232,0,0.415c0,0.186-0.022,0.37-0.022,0.556c-0.023,0.185-0.023,0.37-0.046,0.555
							c-0.022,0.186-0.022,0.323-0.022,0.416c-0.023,0.185-0.163,0.277-0.37,0.277c-0.186,0.022-0.394,0.022-0.671,0.022
							s-0.602,0-0.948,0.025c-0.347,0-0.67,0.022-1.017,0.022s-0.647,0-0.971,0h-6.034c-0.116,0-0.208-0.022-0.348-0.07
							c-0.115-0.045-4.229-0.115-4.229-0.185v-1.85l0,0V33.714z"/>
					</g>
				</g>
				<g id="XMLID_7_">
					<g id="XMLID_8_">
						<path id="XMLID_9_" fill="#349797" d="M34.386,33.737c0.023-0.162,0.07-0.255,0.163-0.348
							c0.068-0.067,0.207-0.115,0.369-0.138c0.162,0,0.37-0.022,0.647-0.022c0.323,0,0.555,0,0.739,0
							c0.186,0,0.324,0.045,0.393,0.115c0.116,0.067,0.163,0.185,0.186,0.345c0.023,0.163,0.023,0.371,0.023,0.648v0.255
							c0,0.278,0,0.485-0.023,0.646c-0.022,0.163-0.069,0.256-0.161,0.348c-0.07,0.07-0.209,0.115-0.371,0.138
							c-0.161,0-0.393,0.025-0.646,0.025c-0.324,0-0.556,0-0.74,0c-0.186,0-0.323-0.048-0.393-0.115
							c-0.115-0.07-0.162-0.186-0.162-0.348c-0.023-0.163-0.023-0.37-0.023-0.648v-0.252C34.364,34.107,34.364,33.899,34.386,33.737
							z"/>
					</g>
				</g>
			</g>
		</g>
	</g>
</g>
</svg>
