<?xml version="1.0" encoding="utf-8"?>
<!-- Generator: Adobe Illustrator 17.0.0, SVG Export Plug-In . SVG Version: 6.00 Build 0)  -->
<!DOCTYPE svg PUBLIC "-//W3C//DTD SVG 1.1//EN" "http://www.w3.org/Graphics/SVG/1.1/DTD/svg11.dtd">
<svg version="1.1" id="Layer_1" xmlns="http://www.w3.org/2000/svg" xmlns:xlink="http://www.w3.org/1999/xlink" x="0px" y="0px"
	 width="70.781px" height="70.781px" viewBox="0 0 70.781 70.781" enable-background="new 0 0 70.781 70.781" xml:space="preserve">
<g>
	<path fill="#FFFFFF" d="M24.609,62.065l-0.057-5.168l7.238-4.423L31.245,49.7l0.026-10.75L9.298,45.93v-6.546l21.82-12.477
		c0.04-4.805,0.062-12.089-0.035-13.433l-0.08-0.081l0.039-0.355c0.134-1.238,0.404-3.732,4.193-4.311l0.076-0.012l0.076,0.004
		c1.416,0.074,2.52,0.551,3.278,1.416c1.148,1.309,1.029,3.018,1.024,3.09l0.036,13.701L61.483,39.07l-0.015,6.438l-21.773-6.574
		l0.029,10.831l-0.688,2.697l7.17,4.574l-0.007,4.928l-10.914-3.056L24.609,62.065z M26.062,57.733l0.025,2.331l9.185-2.715
		l9.428,2.64l0.003-2.13l-7.391-4.715l0.911-3.564l-0.035-12.666l21.783,6.577l0.009-3.54L38.228,27.809l-0.036-14.64
		c0.003-0.067,0.07-1.228-0.663-2.055c-0.47-0.528-1.19-0.828-2.144-0.892c-2.575,0.42-2.727,1.815-2.849,2.939l-0.01-0.001
		c0.133,1.006,0.177,4.038,0.087,14.189l-0.004,0.431L10.798,40.254v3.625l21.979-6.98l-0.032,12.729l0.724,3.578L26.062,57.733z"/>
</g>
</svg>
