<?xml version="1.0" encoding="utf-8"?>
<!-- Generator: Adobe Illustrator 16.0.0, SVG Export Plug-In . SVG Version: 6.00 Build 0)  -->
<!DOCTYPE svg PUBLIC "-//W3C//DTD SVG 1.1//EN" "http://www.w3.org/Graphics/SVG/1.1/DTD/svg11.dtd">
<svg version="1.1" id="Layer_1" xmlns="http://www.w3.org/2000/svg" xmlns:xlink="http://www.w3.org/1999/xlink" x="0px" y="0px"
	 width="60px" height="60px" viewBox="0 0 60 60" enable-background="new 0 0 60 60" xml:space="preserve">
<path fill="#B7B7B7" d="M45.314,54.885c-3.106,0-5.627-2.523-5.627-5.615c0-0.727,0.135-1.43,0.41-2.088
	c0.055-0.156,0.035-0.326-0.06-0.461c-0.103-0.141-0.255-0.219-0.413-0.219H28.974c-0.159,0-0.314,0.078-0.403,0.219
	c-0.102,0.135-0.126,0.305-0.053,0.461c0.265,0.658,0.392,1.361,0.392,2.088c0,3.092-2.519,5.615-5.622,5.615
	c-3.1,0-5.62-2.523-5.62-5.615c0-0.787,0.156-1.549,0.481-2.27c0.061-0.131,0.061-0.283,0-0.42c-0.067-0.133-0.18-0.23-0.335-0.27
	c-2.51-0.646-4.259-2.916-4.259-5.496V10.979c0-0.196-0.121-0.375-0.297-0.454L6.911,7.843c-0.346-0.152-0.629-0.431-0.77-0.788
	C6.003,6.707,6.003,6.321,6.145,5.977c0.226-0.515,0.767-0.861,1.346-0.861c0.181,0,0.361,0.032,0.534,0.103l7.683,3.241
	c0.008,0.003,0.124,0.098,0.146,0.11c0.021,0.019,0.039,0.042,0.06,0.055c0.029,0.022,0.057,0.04,0.088,0.053
	c0.006,0.021,0.066,0.101,0.077,0.115c0.007,0.004,0.085,0.094,0.088,0.101l0.099,0.156l0.039,0.09c0,0,0.056,0.142,0.06,0.17
	c-0.003-0.018-0.003-0.037-0.017-0.053c0.017,0.031,0.025,0.06,0.028,0.081c0.018,0.046,0.039,0.092,0.06,0.116
	c-0.025-0.028-0.042-0.063-0.049-0.096c0.007,0.05,0.017,0.08,0.017,0.112c0,0.048,0.007,0.095,0.021,0.143
	c0,0.013,0,22.622,0,22.622c0,1.561,1.262,2.828,2.82,2.828H46.63c1.552,0,2.826-1.271,2.826-2.828V20.705
	c0-0.782,0.644-1.418,1.421-1.418c0.788,0,1.421,0.636,1.421,1.418v11.538c0,3.135-2.545,5.68-5.668,5.68H19.245
	c-0.738,0-1.459-0.137-2.13-0.422c-0.064-0.022-0.138-0.039-0.198-0.039c-0.099,0-0.19,0.035-0.272,0.086
	c-0.141,0.101-0.219,0.254-0.219,0.416v2.854c0,1.562,1.262,2.834,2.82,2.834h26.07c3.1,0,5.615,2.517,5.615,5.619
	C50.93,52.361,48.414,54.885,45.314,54.885z M45.297,46.502c-1.52,0-2.763,1.232-2.763,2.768c0,1.521,1.243,2.767,2.763,2.767
	c1.538,0,2.773-1.24,2.773-2.767C48.07,47.734,46.835,46.502,45.297,46.502z M23.288,46.502c-1.53,0-2.764,1.232-2.764,2.768
	c0,1.521,1.234,2.767,2.764,2.767c1.534,0,2.767-1.24,2.767-2.767C26.055,47.734,24.822,46.502,23.288,46.502z"/>
</svg>
