<svg xmlns="http://www.w3.org/2000/svg" viewBox="0 0 160 55.128"><defs><linearGradient id="a" x1="96.593" y1="-9.128" x2="96.593" y2="40.982" gradientTransform="matrix(1 0 0 -1 0 46)" gradientUnits="userSpaceOnUse"><stop offset=".01" stop-color="#fff" stop-opacity="0"/><stop offset=".35" stop-color="#fff"/></linearGradient></defs><title>SuperSaverTravel</title><path d="M45.551 13.864c0-.431-1.006-1.438-1.869-1.582-.719 0-14.234.431-18.4.575-.723-1.582-1.582-2.876-1.582-3.019-.144-.431-.863-.719-1.725-.431-.719.288-1.15.863-1.006 1.294a11.615 11.615 0 0 0 1.006 2.013c-.719 0-2.732.288-3.307.288-.144-.144-.144-.288-.288-.431-.575-1.006-3.307-5.751-4.313-6.758a29.313 29.313 0 0 0-4.748-4.746C7.449-.371 7.018.061 7.018.061c-2.013 1.582 5.32 13.372 6.47 15.241a3.143 3.143 0 0 1 .431.719c-.144.144-.144.144-.144.288-.144.288-1.006 1.15-2.157 2.444a25.5 25.5 0 0 1-1.438-2.444 1.321 1.321 0 0 0-1.582.144c-.719.431-1.006 1.15-.863 1.438.144.144.863 1.438 2.013 2.876C5.868 25.222.548 31.261.26 31.692c-.431.719-.288 2.157.144 2.3.431.288 13.947-10.065 15.1-10.783a3.7 3.7 0 0 1 2.588-.719 118.193 118.193 0 0 0 8.052 10.783c.144.144.288.288.431.288-1.869 2.444-4.6 6.326-4.889 6.9-.144.431-.288.863.431.719.575-.144 5.32-3.738 7.189-5.032a1.563 1.563 0 0 0 .719.144.869.869 0 0 0 .431-.863c2.013-.575 9.058-2.444 9.489-2.444s.575-.431 0-.719c-.575-.144-7.764-.575-10.64-.719-.719-1.582-3.163-7.045-5.607-11.215a4.449 4.449 0 0 1 2.588-1.869c1.293-.286 19.265-4.163 19.265-4.599zM50.583 12.713l5.176-.288a4.2 4.2 0 0 0 .719 2.013 3.071 3.071 0 0 0 2.444 1.15 2.651 2.651 0 0 0 1.869-.575 1.743 1.743 0 0 0 0-2.588 5.718 5.718 0 0 0-2.876-1.006 12.629 12.629 0 0 1-5.175-2.156 4.375 4.375 0 0 1-1.582-3.451 4.638 4.638 0 0 1 .863-2.588 4.681 4.681 0 0 1 2.444-1.869 11.688 11.688 0 0 1 4.314-.719 8.581 8.581 0 0 1 5.176 1.294 5.826 5.826 0 0 1 2.157 4.026l-5.176.288a2.469 2.469 0 0 0-2.619-2.31l-.113.01a2.147 2.147 0 0 0-1.438.431 1.3 1.3 0 0 0-.431 1.006.791.791 0 0 0 .431.719 4.908 4.908 0 0 0 1.869.719A22.481 22.481 0 0 1 63.811 8.4a6.311 6.311 0 0 1 2.3 2.013 5.381 5.381 0 0 1 .72 2.587 5.176 5.176 0 0 1-1.006 3.163 5.4 5.4 0 0 1-2.588 2.157 12.267 12.267 0 0 1-4.313.719c-3.019 0-5.176-.575-6.326-1.725a7.508 7.508 0 0 1-2.015-4.601zM78.621.78h5.464v10.64a10.945 10.945 0 0 1-.431 3.019 6.5 6.5 0 0 1-1.582 2.444 6.278 6.278 0 0 1-2.157 1.438 10.051 10.051 0 0 1-3.882.575 20.25 20.25 0 0 1-2.876-.144 11.151 11.151 0 0 1-2.588-.719 6.452 6.452 0 0 1-1.869-1.581 4.832 4.832 0 0 1-1.15-2.013 13.722 13.722 0 0 1-.575-3.019V.78h5.464v10.783a2.969 2.969 0 0 0 3.161 3.163 2.523 2.523 0 0 0 2.157-.863 3.036 3.036 0 0 0 .863-2.3zM85.234.78h9.2a5.951 5.951 0 0 1 4.457 1.438 5.327 5.327 0 0 1 1.438 4.026 5.753 5.753 0 0 1-1.582 4.17A7.123 7.123 0 0 1 93.858 12h-3.016v6.61h-5.464zM90.7 8.4h1.294a3.4 3.4 0 0 0 2.3-.575 1.846 1.846 0 0 0 .575-1.438 1.846 1.846 0 0 0-.575-1.438c-.431-.431-1.006-.575-2.157-.575h-1.583zM100.619.78h14.666v3.738h-9.2v2.875h8.627v3.594h-8.627v3.451h9.489v4.026h-14.955zM116.147 18.608V.78h9.2a13.085 13.085 0 0 1 3.882.431 4.7 4.7 0 0 1 2.157 1.582 4.563 4.563 0 0 1 .863 2.876 4.924 4.924 0 0 1-.575 2.588 4.956 4.956 0 0 1-1.725 1.725 5.639 5.639 0 0 1-1.869.719 4.359 4.359 0 0 1 1.438.719 8.607 8.607 0 0 1 .863 1.006 3.607 3.607 0 0 1 .719 1.15l2.732 5.176h-6.326l-2.876-5.464a7.676 7.676 0 0 0-1.006-1.438 2.319 2.319 0 0 0-1.294-.431h-.575v7.189zm5.607-10.5h2.3a12.043 12.043 0 0 0 1.438-.288 1.32 1.32 0 0 0 .863-.575 1.213 1.213 0 0 0 .288-1.006 1.4 1.4 0 0 0-.575-1.294 3.48 3.48 0 0 0-2.013-.431h-2.3zM87.966 35.862l-.719 3.738h1.294l.719-3.738h-1.294zM107.952 37.156l-1.438 2.444h.863l.575-2.444zM104.501 34.855l.287 2.588 1.294-2.588h-1.581z" fill="#fff"/><path fill="#fff" d="M92.423 33.274l7.621-13.372-3.451 16.823 2.013-3.451h5.32l.431-2.588h10.209l.862-4.314H105.22l.719-3.307h10.927l.863-4.601h-23.58l-7.477 14.81h5.751zM59.5 36.437a8.355 8.355 0 0 0 1.867-3.737 4.748 4.748 0 0 0-.288-3.163 5.484 5.484 0 0 0-2.157-2.3 24.167 24.167 0 0 0-5.751-1.869 4.886 4.886 0 0 1-2.013-.719c-.288-.288-.431-.575-.288-.863a2.236 2.236 0 0 1 .863-1.15A3.262 3.262 0 0 1 53.6 22.2a2.844 2.844 0 0 1 2.013.719 2.811 2.811 0 0 1 .575 2.013l6.183-.431c.144-2.157-.288-3.738-1.582-4.745-1.15-1.006-3.163-1.438-5.9-1.438a13.7 13.7 0 0 0-5.32.863 8.04 8.04 0 0 0-3.307 2.3 7.671 7.671 0 0 0-1.574 3.019 4.37 4.37 0 0 0 1.006 4.026q1.51 1.51 5.607 2.588a7.5 7.5 0 0 1 3.163 1.294 1.379 1.379 0 0 1 .431 1.438 2.734 2.734 0 0 1-1.006 1.582 3.658 3.658 0 0 1-2.3.719A2.608 2.608 0 0 1 49 34.855a5.041 5.041 0 0 1-.431-2.3l-6.326.431a6.656 6.656 0 0 0 1.294 5.32c1.15 1.438 3.451 2.013 7.045 2.013a15.292 15.292 0 0 0 5.32-.863 15.347 15.347 0 0 0 3.598-3.019z"/><path d="M70.138 18.464L57.916 39.6h6.614l1.725-3.451h7.477l.431 3.451h6.9l-3.88-21.136zM68.7 31.548l3.882-7.62.863 7.62zM84.947 35.862H82.79l.431-2.588h3.164l-1.582-14.81h-6.901L81.64 39.6h2.588l.719-3.738z" fill="#fff"/><path d="M83.653 33.705h6.47l-.288 1.725h-2.156l-1.006 5.176h-2.3l1.006-5.176h-2.158zm5.176 7.045l1.438-6.9h3.594a3.607 3.607 0 0 1 1.438.144 1.435 1.435 0 0 1 .719.575 2.8 2.8 0 0 1 .144 1.15 7.008 7.008 0 0 1-.431 1.006c-.288.288-.431.575-.863.719-.144.144-.431.144-.863.288.288.144.431.144.575.288a1.779 1.779 0 0 1 .288.431.528.528 0 0 1 .144.431l.575 2.013h-2.445l-.719-2.157c-.144-.288-.144-.431-.288-.575a.528.528 0 0 0-.431-.144h-.144l-.575 2.876h-2.156zm2.876-4.17h.863a1.087 1.087 0 0 0 .575-.144c.144 0 .288-.144.431-.288s.144-.288.288-.431c0-.288 0-.431-.144-.575A1.077 1.077 0 0 0 93 35h-1.008zm8.339 3.019H97.6l-.575 1.15h-2.157l4.026-6.9h2.3l1.294 6.9h-2.3zm-.144-1.58l-.288-2.444-1.294 2.444zm1.869-4.313h2.3l.575 5.032 2.588-5.032h2.157l-4.026 6.9h-2.3zm7.189 0h5.751l-.288 1.438h-3.594l-.288 1.15h3.307l-.288 1.438h-3.307l-.288 1.438h3.737l-.288 1.582h-5.892zm6.183 0h2.159l-1.006 5.32h3.306l-.288 1.725h-5.464zm6.614 5.607l2.013-.144c0 .288.144.431.288.431.144.144.288.144.575.144s.431 0 .575-.144l.288-.288c0-.144 0-.288-.144-.288a3.134 3.134 0 0 0-.863-.144c-.719-.144-1.15-.288-1.294-.288a1.123 1.123 0 0 1-.575-.575 1.824 1.824 0 0 1-.144-.863c0-.288.288-.575.431-.863a3.008 3.008 0 0 1 .863-.575 4.433 4.433 0 0 1 1.438-.144 3.191 3.191 0 0 1 1.294.144 1.985 1.985 0 0 1 .575.431 1.1 1.1 0 0 1 .288.719l-1.869.144c0-.144 0-.288-.144-.288-.144-.144-.288-.144-.575-.144s-.431 0-.431.144c-.144.144-.144.144-.144.288s0 .288.144.288a5.084 5.084 0 0 0 .863.144 12.453 12.453 0 0 1 1.438.288 1.123 1.123 0 0 1 .575.575 1.824 1.824 0 0 1 .144.863 1.243 1.243 0 0 1-.431.863 6.087 6.087 0 0 1-1.006.719 5.169 5.169 0 0 1-1.582.288 2.965 2.965 0 0 1-1.869-.431 1.377 1.377 0 0 1-.721-1.294zm11.215-.575h-3.882a1.077 1.077 0 0 0 .144.719c.144.288.431.288.719.288a.864.864 0 0 0 .575-.144c.144 0 .288-.144.431-.288l1.869.144a4.658 4.658 0 0 1-1.294 1.15 3.4 3.4 0 0 1-1.869.288 4.438 4.438 0 0 1-1.582-.288 1.473 1.473 0 0 1-.719-.863 4.433 4.433 0 0 1-.144-1.438 3.2 3.2 0 0 1 1.15-1.869 3.658 3.658 0 0 1 2.3-.719 3.847 3.847 0 0 1 1.582.288 1.664 1.664 0 0 1 .719 1.006 3.452 3.452 0 0 1 0 1.725zm-1.87-1.007a1.557 1.557 0 0 0-.144-.863.747.747 0 0 0-.575-.288 1.243 1.243 0 0 0-.863.431 3.143 3.143 0 0 0-.431.719zm-10.5 1.582a.719.719 0 1 0 .719.719.679.679 0 0 0-.719-.719z" fill="#fff"/><path d="M135.845 27.379a5.724 5.724 0 0 0 1.294-3.019 5.525 5.525 0 0 0-.288-3.451 3.124 3.124 0 0 0-2.157-1.869 15.925 15.925 0 0 0-4.457-.575H119.31l-3.019 14.809h1.438l-1.006 5.176h3.307l-.144.575c.288-.288.431-.288.863-.288a1.1 1.1 0 0 1 .719.288h.288l.144-1.15a1.956 1.956 0 0 1 0-1.006 1.643 1.643 0 0 1 .431-1.006l1.006-5.032h.575a2.147 2.147 0 0 1 1.438.431 5.148 5.148 0 0 1 .863 1.582l.863 2.588a3.143 3.143 0 0 1 .431.719c.144-.288.431-.431.575-.575a4.219 4.219 0 0 1 2.3-.575 3.6 3.6 0 0 1 1.869.431 2.236 2.236 0 0 1 .863 1.15 3.5 3.5 0 0 1 0 1.725c-.144.431-.288 1.15-.288 1.15h2.874l-1.869-6.183a6.3 6.3 0 0 0-.719-1.294 2.628 2.628 0 0 0-.863-1.15 3.245 3.245 0 0 0-1.582-.719 7.99 7.99 0 0 0 2.444-.863 4.713 4.713 0 0 0 2.734-1.869zm-5.32-2.444a2.939 2.939 0 0 1-.719 1.294 3.131 3.131 0 0 1-1.15.719c-.863.144-1.438.288-1.725.288H124.2l.863-4.313h2.876c1.15 0 2.013.144 2.3.575.286.143.43.718.286 1.437z" fill="#fff"/><path d="M146.053 4.949S160 14.3 160 28.385 149.935 51.1 144.328 55.128h-20.7s20.992-6.614 26.887-22.717a27.874 27.874 0 0 0-4.462-27.462zm-93.6 50.179h10.064C43.97 49.665 33.186 39.744 33.186 39.744c7.045 9.489 19.267 15.384 19.267 15.384z" fill="url(#a)"/></svg>
